.
 
http://www.scenetime.com    -   SceneTime [ We been having it ] !!!


How come you press harder on a remote control when you know the battery is dead? so you better seed to get speed ;)

        Seed back for speed


...................................NFO:.................................................[IMG]http://lookpic.com/c1/i2/3358/ThBrlHEK.jpeg[/IMG]


...::::The Ward 2011 DVDSCR XViD-ORPHiC ::::...


...::::Video Source::::...Palata.2010.Dt.DVDScr
...::::Audio SOurce::::...HiVE-CM8

...::::Language/sub::::...English
...::::IMDB./.Info ::::...http://www.imdb.com/title/tt1369706/
...::::IMDB./.Plot ::::...A thriller centered on an
institutionalized young woman who becomes terrorized by a ghost. 
domysmk
...::::Video::::...

ID                               : 0
Format                           : MPEG-4 Visual
Format profile                   : Advanced Simple@L5
Format settings, BVOP            : 2
Format settings, QPel            : No
Format settings, GMC             : No warppoints
Format settings, Matrix          : Default (H.263)
Muxing mode                      : Packed bitstream
Codec ID                         : XVID
Codec ID/Hint                    : XviD
Duration                         : 1h 32mn
Bit rate                         : 2 172 Kbps
Width                            : 720 pixels
Height                           : 304 pixels
Display aspect ratio             : 2.35:1
Frame rate                       : 23.976 fps
Color space                      : YUV
Chroma subsampling               : 4:2:0
Bit depth                        : 8 bits
Scan type                        : Progressive
Compression mode                 : Lossy
Bits/(Pixel*Frame)               : 0.414
Stream size                      : 1.40 GiB (89%)
Writing library                  : XviD 1.2.1 (UTC 2008-12-04)

...::::Audio::::...

ID                               : 1
Format                           : AC-3
Format/Info                      : Audio Coding 3
Mode extension                   : CM (complete main)
Codec ID                         : 2000
Duration                         : 1h 32mn
Bit rate mode                    : Constant
Bit rate                         : 256 Kbps
Channel(s)                       : 2 channels
Channel positions                : Front: L R
Sampling rate                    : 48.0 KHz
Bit depth                        : 16 bits
Compression mode                 : Lossy
Stream size                      : 169 MiB (11%)
Alignment                        : Split accross interleaves
Interleave, duration             : 42 ms (1.00 video frame)
Interleave, preload duration     : 500 ms


...::::NOTES::::...
Source had an extreme amount of purple/magneta to it, 
not sure if thats how it was intended to be filmed but
i doubt , so i fixed that, then played with the brightness
and the contrast.. also removed some noticeable pixels/noise
enjoy ;)


                     ...::::ORPHiC::::...
                   ::::...REVEALiNG...::::
                   ...::::BiT BY BiT::::...

[img]http://www.leetleech.org/images/41667799149471345933.png[/img]
[img]http://www.leetleech.org/images/33831112618903164232.png[/img]
[img]http://www.leetleech.org/images/10407266089811848174.png[/img]
[img]http://www.leetleech.org/images/76641338030010595905.png[/img]
[img]http://www.leetleech.org/images/48712425606518371450.png[/img]